<svg width="10" height="17" viewBox="0 0 10 17" fill="none" xmlns="http://www.w3.org/2000/svg">
<path d="M0.525804 2.66493C0.0351817 2.17431 0.035181 1.37885 0.525803 0.888231C1.01643 0.397608 1.81188 0.397608 2.3025 0.88823L9.22704 7.81276C9.71766 8.30338 9.71766 9.09884 9.22704 9.58946C8.73641 10.0801 7.94096 10.0801 7.45034 9.58946L0.525804 2.66493Z" fill="#D9D9D9"/>
<path d="M0.525804 14.8128C0.0351817 15.3034 0.035181 16.0989 0.525803 16.5895C1.01643 17.0801 1.81188 17.0801 2.3025 16.5895L9.22704 9.66496C9.71766 9.17434 9.71766 8.37888 9.22704 7.88826C8.73641 7.39764 7.94096 7.39764 7.45034 7.88826L0.525804 14.8128Z" fill="#D9D9D9"/>
</svg>
