<svg width="2" height="14" viewBox="0 0 2 14" fill="none" xmlns="http://www.w3.org/2000/svg">
<path d="M0 0H1V1H0V0Z" fill="black"/>
<path d="M0 4H1V5H0V4Z" fill="black"/>
<path d="M0 8H1V9H0V8Z" fill="black"/>
<path d="M0 12H1V13H0V12Z" fill="black"/>
<path d="M1 0H2V1H1V0Z" fill="black"/>
<path d="M1 4H2V5H1V4Z" fill="black"/>
<path d="M1 8H2V9H1V8Z" fill="black"/>
<path d="M1 12H2V13H1V12Z" fill="black"/>
<path d="M1 1H2V2H1V1Z" fill="black"/>
<path d="M1 5H2V6H1V5Z" fill="black"/>
<path d="M1 9H2V10H1V9Z" fill="black"/>
<path d="M1 13H2V14H1V13Z" fill="black"/>
<path d="M0 1H1V2H0V1Z" fill="black"/>
<path d="M0 5H1V6H0V5Z" fill="black"/>
<path d="M0 9H1V10H0V9Z" fill="black"/>
<path d="M0 13H1V14H0V13Z" fill="black"/>
</svg>
