<svg width="14" height="14" viewBox="0 0 14 14" fill="none" xmlns="http://www.w3.org/2000/svg">
<path d="M1.41416 7.03553C0.633107 6.25448 0.633107 4.98816 1.41416 4.20711L4.20705 1.41421C4.9881 0.633164 6.25443 0.633165 7.03548 1.41421L8.09764 2.47638L2.47632 8.0977L1.41416 7.03553Z" fill="#1C1D29"/>
<path d="M3.53027 8.94454C3.23738 8.65165 3.23738 8.17678 3.53027 7.88388C3.82317 7.59099 4.29804 7.59099 4.59093 7.88388L8.48002 11.773C8.77291 12.0659 8.77291 12.5407 8.48002 12.8336C8.18713 13.1265 7.71225 13.1265 7.41936 12.8336L3.53027 8.94454Z" fill="#1C1D29"/>
<path d="M8.03027 4.59099C7.73738 4.2981 7.73738 3.82322 8.03027 3.53033C8.32317 3.23744 8.79804 3.23744 9.09093 3.53033L12.98 7.41942C13.2729 7.71231 13.2729 8.18718 12.98 8.48008C12.6871 8.77297 12.2123 8.77297 11.9194 8.48008L8.03027 4.59099Z" fill="#1C1D29"/>
<path d="M6.3535 7.06066C6.15823 6.8654 6.15823 6.54882 6.3535 6.35355C6.54876 6.15829 6.86534 6.15829 7.0606 6.35355L11.3032 10.5962C11.4985 10.7915 11.4985 11.108 11.3032 11.3033C11.108 11.4986 10.7914 11.4986 10.5961 11.3033L6.3535 7.06066Z" fill="#1C1D29"/>
<path d="M12.9999 10.5C12.9999 10.2239 13.2238 10 13.4999 10C13.7761 10 13.9999 10.2239 13.9999 10.5V13.5C13.9999 13.7761 13.7761 14 13.4999 14C13.2238 14 12.9999 13.7761 12.9999 13.5V10.5Z" fill="#1C1D29"/>
<path d="M10.4999 14C10.2238 14 9.99994 13.7761 9.99994 13.5C9.99994 13.2239 10.2238 13 10.4999 13L13.4999 13C13.7761 13 13.9999 13.2239 13.9999 13.5C13.9999 13.7761 13.7761 14 13.4999 14H10.4999Z" fill="#1C1D29"/>
<path d="M12.9999 14C12.4477 14 11.9999 13.5523 11.9999 13C11.9999 12.4477 12.4477 12 12.9999 12C13.5522 12 13.9999 12.4477 13.9999 13C13.9999 13.5523 13.5522 14 12.9999 14Z" fill="#1C1D29"/>
</svg>
