<svg width="66" height="48" viewBox="0 0 66 48" fill="none" xmlns="http://www.w3.org/2000/svg">
<path d="M16.0242 12.8132C15.6566 12.0186 15.6545 11.103 16.0184 10.3067L17.771 6.4715C18.8393 4.13394 22.1603 4.13412 23.2283 6.47179L38.0358 38.8831C38.9655 40.9181 37.421 43.2179 35.1856 43.1273L31.7806 42.9893C30.6562 42.9437 29.6518 42.2727 29.1794 41.2513L16.0242 12.8132Z" fill="#D9D9D9"/>
<path d="M24.8389 12.8133C25.2064 12.0187 25.2086 11.1032 24.8447 10.3069L23.092 6.47162C22.0238 4.13406 18.7027 4.13424 17.6347 6.47191L2.82724 38.8833C1.89755 40.9182 3.44205 43.2181 5.67746 43.1274L9.0824 42.9894C10.2068 42.9438 11.2112 42.2728 11.6837 41.2514L24.8389 12.8133Z" fill="#D9D9D9"/>
<path d="M29.3912 10.4481C28.8182 9.21015 29.1526 7.7415 30.2049 6.87357L32.6191 4.88253C34.1356 3.63182 36.4251 4.15315 37.2505 5.93714L50.8567 35.3426C51.2517 36.1962 51.2235 37.1855 50.7806 38.0152L48.9961 41.358C47.8297 43.5431 44.6675 43.4532 43.6271 41.2053L29.3912 10.4481Z" fill="#FFB300"/>
<path d="M60.8726 12C62.1183 12 63.2344 11.2302 63.677 10.0657L64.437 8.0657C65.1831 6.10247 63.7329 4 61.6327 4L31.1297 4C28.9765 4 27.5244 6.20119 28.3718 8.18066L29.228 10.1807C29.7005 11.2843 30.7854 12 31.9859 12L60.8726 12Z" fill="#FFB300"/>
<path d="M54.0075 27C55.1252 27 56.1503 26.3786 56.6673 25.3877L57.7108 23.3877C58.7528 21.3904 57.3038 19 55.051 19L40.0359 19C38.0251 19 36.5837 20.9392 37.1631 22.8646L37.7651 24.8646C38.1466 26.1323 39.314 27 40.6378 27L54.0075 27Z" fill="#FFB300"/>
<rect x="29" y="29" width="7" height="22" rx="3" transform="rotate(90 29 29)" fill="#D9D9D9"/>
</svg>
